<mxfile host="app.diagrams.net" agent="Mozilla/5.0 (Windows NT 10.0; Win64; x64) AppleWebKit/537.36 (KHTML, like Gecko) Chrome/136.0.0.0 Safari/537.36 Edg/136.0.0.0" version="27.0.3">
  <diagram name="第 1 页" id="ScM45TfWM9TeoWm1KZnZ">
    <mxGraphModel dx="1500" dy="1995" grid="1" gridSize="10" guides="1" tooltips="1" connect="1" arrows="1" fold="1" page="1" pageScale="1" pageWidth="827" pageHeight="1169" math="0" shadow="0">
      <root>
        <mxCell id="0" />
        <mxCell id="1" parent="0" />
        <mxCell id="N3y8-y1VJrY_6f-vKtxs-2" value="&lt;font style=&quot;font-size: 16px;&quot;&gt;设备数据&lt;/font&gt;" style="rounded=0;whiteSpace=wrap;html=1;" vertex="1" parent="1">
          <mxGeometry x="380" y="50" width="80" height="40" as="geometry" />
        </mxCell>
        <mxCell id="N3y8-y1VJrY_6f-vKtxs-7" value="&lt;font style=&quot;font-size: 16px;&quot;&gt;设备&lt;/font&gt;" style="rounded=0;whiteSpace=wrap;html=1;" vertex="1" parent="1">
          <mxGeometry x="650" y="75" width="80" height="40" as="geometry" />
        </mxCell>
        <mxCell id="N3y8-y1VJrY_6f-vKtxs-29" value="&lt;p class=&quot;MsoNormal&quot;&gt;&lt;font face=&quot;Helvetica&quot; style=&quot;font-size: 16px;&quot;&gt;设备名称&lt;/font&gt;&lt;/p&gt;" style="ellipse;whiteSpace=wrap;html=1;" vertex="1" parent="1">
          <mxGeometry x="775" y="-10" width="80" height="40" as="geometry" />
        </mxCell>
        <mxCell id="N3y8-y1VJrY_6f-vKtxs-30" value="&lt;p class=&quot;MsoNormal&quot;&gt;&lt;font face=&quot;Helvetica&quot; style=&quot;font-size: 16px;&quot;&gt;在线状态&lt;/font&gt;&lt;/p&gt;" style="ellipse;whiteSpace=wrap;html=1;" vertex="1" parent="1">
          <mxGeometry x="810" y="40" width="80" height="40" as="geometry" />
        </mxCell>
        <mxCell id="N3y8-y1VJrY_6f-vKtxs-31" value="&lt;p class=&quot;MsoNormal&quot;&gt;&lt;font face=&quot;Helvetica&quot; style=&quot;font-size: 16px;&quot;&gt;用户编号&lt;/font&gt;&lt;/p&gt;" style="ellipse;whiteSpace=wrap;html=1;" vertex="1" parent="1">
          <mxGeometry x="790" y="100" width="80" height="40" as="geometry" />
        </mxCell>
        <mxCell id="N3y8-y1VJrY_6f-vKtxs-32" value="&lt;p class=&quot;MsoNormal&quot;&gt;&lt;font face=&quot;Helvetica&quot; style=&quot;font-size: 16px;&quot;&gt;最后活跃时间&lt;/font&gt;&lt;/p&gt;" style="ellipse;whiteSpace=wrap;html=1;" vertex="1" parent="1">
          <mxGeometry x="680" y="160" width="110" height="40" as="geometry" />
        </mxCell>
        <mxCell id="N3y8-y1VJrY_6f-vKtxs-33" value="&lt;p class=&quot;MsoNormal&quot;&gt;&lt;font face=&quot;Helvetica&quot; style=&quot;font-size: 16px;&quot;&gt;所属产品编号&lt;/font&gt;&lt;/p&gt;" style="ellipse;whiteSpace=wrap;html=1;" vertex="1" parent="1">
          <mxGeometry x="665" y="-40" width="110" height="40" as="geometry" />
        </mxCell>
        <mxCell id="N3y8-y1VJrY_6f-vKtxs-34" value="&lt;p class=&quot;MsoNormal&quot;&gt;&lt;span style=&quot;color: rgb(0, 0, 0);&quot;&gt;&lt;font face=&quot;Helvetica&quot; style=&quot;font-size: 16px;&quot;&gt;创建时间&lt;/font&gt;&lt;/span&gt;&lt;/p&gt;" style="ellipse;whiteSpace=wrap;html=1;" vertex="1" parent="1">
          <mxGeometry x="585" y="160" width="80" height="40" as="geometry" />
        </mxCell>
        <mxCell id="N3y8-y1VJrY_6f-vKtxs-35" value="" style="endArrow=none;html=1;rounded=0;entryX=0.395;entryY=0.955;entryDx=0;entryDy=0;entryPerimeter=0;exitX=0.25;exitY=0;exitDx=0;exitDy=0;" edge="1" parent="1" source="N3y8-y1VJrY_6f-vKtxs-7" target="N3y8-y1VJrY_6f-vKtxs-33">
          <mxGeometry width="50" height="50" relative="1" as="geometry">
            <mxPoint x="510" y="210" as="sourcePoint" />
            <mxPoint x="550" y="170" as="targetPoint" />
          </mxGeometry>
        </mxCell>
        <mxCell id="N3y8-y1VJrY_6f-vKtxs-36" value="" style="endArrow=none;html=1;rounded=0;entryX=0;entryY=1;entryDx=0;entryDy=0;exitX=0.75;exitY=0;exitDx=0;exitDy=0;" edge="1" parent="1" source="N3y8-y1VJrY_6f-vKtxs-7" target="N3y8-y1VJrY_6f-vKtxs-29">
          <mxGeometry width="50" height="50" relative="1" as="geometry">
            <mxPoint x="540" y="229.5" as="sourcePoint" />
            <mxPoint x="598" y="170.5" as="targetPoint" />
          </mxGeometry>
        </mxCell>
        <mxCell id="N3y8-y1VJrY_6f-vKtxs-37" value="" style="endArrow=none;html=1;rounded=0;entryX=0;entryY=0.5;entryDx=0;entryDy=0;exitX=1;exitY=0.25;exitDx=0;exitDy=0;" edge="1" parent="1" source="N3y8-y1VJrY_6f-vKtxs-7" target="N3y8-y1VJrY_6f-vKtxs-30">
          <mxGeometry width="50" height="50" relative="1" as="geometry">
            <mxPoint x="538" y="245.5" as="sourcePoint" />
            <mxPoint x="640" y="200" as="targetPoint" />
          </mxGeometry>
        </mxCell>
        <mxCell id="N3y8-y1VJrY_6f-vKtxs-38" value="" style="endArrow=none;html=1;rounded=0;entryX=0;entryY=0.5;entryDx=0;entryDy=0;exitX=1;exitY=0.75;exitDx=0;exitDy=0;" edge="1" parent="1" source="N3y8-y1VJrY_6f-vKtxs-7" target="N3y8-y1VJrY_6f-vKtxs-31">
          <mxGeometry width="50" height="50" relative="1" as="geometry">
            <mxPoint x="538" y="260" as="sourcePoint" />
            <mxPoint x="670" y="234.5" as="targetPoint" />
          </mxGeometry>
        </mxCell>
        <mxCell id="N3y8-y1VJrY_6f-vKtxs-39" value="" style="endArrow=none;html=1;rounded=0;entryX=0.293;entryY=0;entryDx=0;entryDy=0;entryPerimeter=0;exitX=0.607;exitY=0.995;exitDx=0;exitDy=0;exitPerimeter=0;" edge="1" parent="1" source="N3y8-y1VJrY_6f-vKtxs-7" target="N3y8-y1VJrY_6f-vKtxs-32">
          <mxGeometry width="50" height="50" relative="1" as="geometry">
            <mxPoint x="850" y="100" as="sourcePoint" />
            <mxPoint x="652" y="280" as="targetPoint" />
          </mxGeometry>
        </mxCell>
        <mxCell id="N3y8-y1VJrY_6f-vKtxs-40" value="" style="endArrow=none;html=1;rounded=0;entryX=0.5;entryY=0;entryDx=0;entryDy=0;exitX=0.25;exitY=1;exitDx=0;exitDy=0;" edge="1" parent="1" source="N3y8-y1VJrY_6f-vKtxs-7" target="N3y8-y1VJrY_6f-vKtxs-34">
          <mxGeometry width="50" height="50" relative="1" as="geometry">
            <mxPoint x="530" y="270" as="sourcePoint" />
            <mxPoint x="640" y="330" as="targetPoint" />
          </mxGeometry>
        </mxCell>
        <mxCell id="N3y8-y1VJrY_6f-vKtxs-41" value="&lt;span style=&quot;font-size: 16px;&quot;&gt;产生&lt;/span&gt;" style="rhombus;whiteSpace=wrap;html=1;" vertex="1" parent="1">
          <mxGeometry x="520" y="40" width="80" height="60" as="geometry" />
        </mxCell>
        <mxCell id="N3y8-y1VJrY_6f-vKtxs-42" value="" style="endArrow=none;html=1;rounded=0;entryX=0.5;entryY=1;entryDx=0;entryDy=0;exitX=0;exitY=0;exitDx=0;exitDy=0;" edge="1" parent="1" source="N3y8-y1VJrY_6f-vKtxs-7" target="N3y8-y1VJrY_6f-vKtxs-41">
          <mxGeometry width="50" height="50" relative="1" as="geometry">
            <mxPoint x="460" y="220" as="sourcePoint" />
            <mxPoint x="510" y="170" as="targetPoint" />
          </mxGeometry>
        </mxCell>
        <mxCell id="N3y8-y1VJrY_6f-vKtxs-43" value="" style="endArrow=none;html=1;rounded=0;entryX=1;entryY=1;entryDx=0;entryDy=0;exitX=0.5;exitY=0;exitDx=0;exitDy=0;" edge="1" parent="1" source="N3y8-y1VJrY_6f-vKtxs-41" target="N3y8-y1VJrY_6f-vKtxs-2">
          <mxGeometry width="50" height="50" relative="1" as="geometry">
            <mxPoint x="458.95" y="120" as="sourcePoint" />
            <mxPoint x="458.95" y="80" as="targetPoint" />
          </mxGeometry>
        </mxCell>
        <mxCell id="N3y8-y1VJrY_6f-vKtxs-44" value="&lt;p class=&quot;MsoNormal&quot;&gt;&lt;font face=&quot;Helvetica&quot; style=&quot;font-size: 16px;&quot;&gt;三色灯状态&lt;/font&gt;&lt;/p&gt;" style="ellipse;whiteSpace=wrap;html=1;" vertex="1" parent="1">
          <mxGeometry x="150" y="50" width="90" height="40" as="geometry" />
        </mxCell>
        <mxCell id="N3y8-y1VJrY_6f-vKtxs-45" value="&lt;p class=&quot;MsoNormal&quot;&gt;&lt;font face=&quot;Helvetica&quot; style=&quot;font-size: 16px;&quot;&gt;人体状态&lt;/font&gt;&lt;/p&gt;" style="ellipse;whiteSpace=wrap;html=1;" vertex="1" parent="1">
          <mxGeometry x="170" y="110" width="80" height="40" as="geometry" />
        </mxCell>
        <mxCell id="N3y8-y1VJrY_6f-vKtxs-46" value="&lt;p class=&quot;MsoNormal&quot;&gt;&lt;font face=&quot;Helvetica&quot; style=&quot;font-size: 16px;&quot;&gt;温度值&lt;/font&gt;&lt;/p&gt;" style="ellipse;whiteSpace=wrap;html=1;" vertex="1" parent="1">
          <mxGeometry x="200" y="-60" width="80" height="40" as="geometry" />
        </mxCell>
        <mxCell id="N3y8-y1VJrY_6f-vKtxs-47" value="&lt;p class=&quot;MsoNormal&quot;&gt;&lt;font face=&quot;Helvetica&quot; style=&quot;font-size: 16px;&quot;&gt;湿度值&lt;/font&gt;&lt;/p&gt;" style="ellipse;whiteSpace=wrap;html=1;" vertex="1" parent="1">
          <mxGeometry x="280" y="-90" width="80" height="40" as="geometry" />
        </mxCell>
        <mxCell id="N3y8-y1VJrY_6f-vKtxs-48" value="&lt;p class=&quot;MsoNormal&quot;&gt;&lt;font face=&quot;Helvetica&quot; style=&quot;font-size: 16px;&quot;&gt;所属产品编号&lt;/font&gt;&lt;/p&gt;" style="ellipse;whiteSpace=wrap;html=1;" vertex="1" parent="1">
          <mxGeometry x="220" y="150" width="120" height="40" as="geometry" />
        </mxCell>
        <mxCell id="N3y8-y1VJrY_6f-vKtxs-49" value="&lt;p class=&quot;MsoNormal&quot;&gt;&lt;font face=&quot;Helvetica&quot; style=&quot;font-size: 16px;&quot;&gt;火焰状态&lt;/font&gt;&lt;/p&gt;" style="ellipse;whiteSpace=wrap;html=1;" vertex="1" parent="1">
          <mxGeometry x="150" y="-10" width="80" height="40" as="geometry" />
        </mxCell>
        <mxCell id="N3y8-y1VJrY_6f-vKtxs-50" value="&lt;p class=&quot;MsoNormal&quot;&gt;&lt;font face=&quot;Helvetica&quot; style=&quot;font-size: 16px;&quot;&gt;蜂鸣器状态&lt;/font&gt;&lt;/p&gt;" style="ellipse;whiteSpace=wrap;html=1;" vertex="1" parent="1">
          <mxGeometry x="370" y="-100" width="100" height="40" as="geometry" />
        </mxCell>
        <mxCell id="N3y8-y1VJrY_6f-vKtxs-51" value="&lt;p class=&quot;MsoNormal&quot;&gt;&lt;font face=&quot;Helvetica&quot; style=&quot;font-size: 16px;&quot;&gt;所属产品类型&lt;/font&gt;&lt;/p&gt;" style="ellipse;whiteSpace=wrap;html=1;" vertex="1" parent="1">
          <mxGeometry x="340" y="160" width="120" height="40" as="geometry" />
        </mxCell>
        <mxCell id="N3y8-y1VJrY_6f-vKtxs-52" value="&lt;p class=&quot;MsoNormal&quot;&gt;&lt;font face=&quot;Helvetica&quot; style=&quot;font-size: 16px;&quot;&gt;光照强度&lt;/font&gt;&lt;/p&gt;" style="ellipse;whiteSpace=wrap;html=1;" vertex="1" parent="1">
          <mxGeometry x="480" y="-90" width="80" height="40" as="geometry" />
        </mxCell>
        <mxCell id="N3y8-y1VJrY_6f-vKtxs-53" value="&lt;p class=&quot;MsoNormal&quot;&gt;&lt;font face=&quot;Helvetica&quot; style=&quot;font-size: 16px;&quot;&gt;序号&lt;/font&gt;&lt;/p&gt;" style="ellipse;whiteSpace=wrap;html=1;" vertex="1" parent="1">
          <mxGeometry x="470" y="150" width="80" height="40" as="geometry" />
        </mxCell>
        <mxCell id="N3y8-y1VJrY_6f-vKtxs-54" value="&lt;p class=&quot;MsoNormal&quot;&gt;&lt;font style=&quot;font-size: 16px;&quot;&gt;当前时间&lt;/font&gt;&lt;/p&gt;" style="ellipse;whiteSpace=wrap;html=1;" vertex="1" parent="1">
          <mxGeometry x="570" y="-60" width="80" height="40" as="geometry" />
        </mxCell>
        <mxCell id="N3y8-y1VJrY_6f-vKtxs-55" value="" style="endArrow=none;html=1;rounded=0;exitX=0.412;exitY=0.005;exitDx=0;exitDy=0;entryX=0.75;entryY=1;entryDx=0;entryDy=0;exitPerimeter=0;" edge="1" parent="1" source="N3y8-y1VJrY_6f-vKtxs-53" target="N3y8-y1VJrY_6f-vKtxs-2">
          <mxGeometry width="50" height="50" relative="1" as="geometry">
            <mxPoint x="350" y="80" as="sourcePoint" />
            <mxPoint x="400" y="30" as="targetPoint" />
          </mxGeometry>
        </mxCell>
        <mxCell id="N3y8-y1VJrY_6f-vKtxs-56" value="" style="endArrow=none;html=1;rounded=0;exitX=0.5;exitY=0;exitDx=0;exitDy=0;entryX=0.352;entryY=1.035;entryDx=0;entryDy=0;entryPerimeter=0;" edge="1" parent="1" source="N3y8-y1VJrY_6f-vKtxs-51" target="N3y8-y1VJrY_6f-vKtxs-2">
          <mxGeometry width="50" height="50" relative="1" as="geometry">
            <mxPoint x="340" y="20" as="sourcePoint" />
            <mxPoint x="420" y="40" as="targetPoint" />
          </mxGeometry>
        </mxCell>
        <mxCell id="N3y8-y1VJrY_6f-vKtxs-57" value="" style="endArrow=none;html=1;rounded=0;exitX=0.685;exitY=0.065;exitDx=0;exitDy=0;entryX=0;entryY=1;entryDx=0;entryDy=0;exitPerimeter=0;" edge="1" parent="1" source="N3y8-y1VJrY_6f-vKtxs-48" target="N3y8-y1VJrY_6f-vKtxs-2">
          <mxGeometry width="50" height="50" relative="1" as="geometry">
            <mxPoint x="370" y="-20" as="sourcePoint" />
            <mxPoint x="470" as="targetPoint" />
          </mxGeometry>
        </mxCell>
        <mxCell id="N3y8-y1VJrY_6f-vKtxs-58" value="" style="endArrow=none;html=1;rounded=0;exitX=1.007;exitY=0.345;exitDx=0;exitDy=0;entryX=0;entryY=0.5;entryDx=0;entryDy=0;exitPerimeter=0;" edge="1" parent="1" source="N3y8-y1VJrY_6f-vKtxs-45" target="N3y8-y1VJrY_6f-vKtxs-2">
          <mxGeometry width="50" height="50" relative="1" as="geometry">
            <mxPoint x="238.28427124746213" y="114.14213562373106" as="sourcePoint" />
            <mxPoint x="380" y="50" as="targetPoint" />
          </mxGeometry>
        </mxCell>
        <mxCell id="N3y8-y1VJrY_6f-vKtxs-59" value="" style="endArrow=none;html=1;rounded=0;exitX=1;exitY=0.5;exitDx=0;exitDy=0;entryX=0;entryY=0.25;entryDx=0;entryDy=0;" edge="1" parent="1" source="N3y8-y1VJrY_6f-vKtxs-44" target="N3y8-y1VJrY_6f-vKtxs-2">
          <mxGeometry width="50" height="50" relative="1" as="geometry">
            <mxPoint x="430" y="-80" as="sourcePoint" />
            <mxPoint x="530" y="-60" as="targetPoint" />
          </mxGeometry>
        </mxCell>
        <mxCell id="N3y8-y1VJrY_6f-vKtxs-60" value="" style="endArrow=none;html=1;rounded=0;exitX=1;exitY=1;exitDx=0;exitDy=0;entryX=0;entryY=0;entryDx=0;entryDy=0;" edge="1" parent="1" source="N3y8-y1VJrY_6f-vKtxs-49" target="N3y8-y1VJrY_6f-vKtxs-2">
          <mxGeometry width="50" height="50" relative="1" as="geometry">
            <mxPoint x="460" y="-90" as="sourcePoint" />
            <mxPoint x="560" y="-70" as="targetPoint" />
          </mxGeometry>
        </mxCell>
        <mxCell id="N3y8-y1VJrY_6f-vKtxs-61" value="" style="endArrow=none;html=1;rounded=0;entryX=0.25;entryY=0;entryDx=0;entryDy=0;" edge="1" parent="1" source="N3y8-y1VJrY_6f-vKtxs-46" target="N3y8-y1VJrY_6f-vKtxs-2">
          <mxGeometry width="50" height="50" relative="1" as="geometry">
            <mxPoint x="504" y="-50" as="sourcePoint" />
            <mxPoint x="604" y="-30" as="targetPoint" />
          </mxGeometry>
        </mxCell>
        <mxCell id="N3y8-y1VJrY_6f-vKtxs-62" value="" style="endArrow=none;html=1;rounded=0;exitX=0.5;exitY=1;exitDx=0;exitDy=0;exitPerimeter=0;entryX=0.382;entryY=-0.065;entryDx=0;entryDy=0;entryPerimeter=0;" edge="1" parent="1" source="N3y8-y1VJrY_6f-vKtxs-47" target="N3y8-y1VJrY_6f-vKtxs-2">
          <mxGeometry width="50" height="50" relative="1" as="geometry">
            <mxPoint x="542" y="-96" as="sourcePoint" />
            <mxPoint x="410" y="40" as="targetPoint" />
          </mxGeometry>
        </mxCell>
        <mxCell id="N3y8-y1VJrY_6f-vKtxs-63" value="" style="endArrow=none;html=1;rounded=0;exitX=0.4;exitY=1;exitDx=0;exitDy=0;entryX=0.622;entryY=-0.065;entryDx=0;entryDy=0;exitPerimeter=0;entryPerimeter=0;" edge="1" parent="1" source="N3y8-y1VJrY_6f-vKtxs-50" target="N3y8-y1VJrY_6f-vKtxs-2">
          <mxGeometry width="50" height="50" relative="1" as="geometry">
            <mxPoint x="590" y="-60" as="sourcePoint" />
            <mxPoint x="550" y="10" as="targetPoint" />
          </mxGeometry>
        </mxCell>
        <mxCell id="N3y8-y1VJrY_6f-vKtxs-64" value="" style="endArrow=none;html=1;rounded=0;exitX=0.25;exitY=1;exitDx=0;exitDy=0;entryX=0.872;entryY=-0.045;entryDx=0;entryDy=0;exitPerimeter=0;entryPerimeter=0;" edge="1" parent="1" source="N3y8-y1VJrY_6f-vKtxs-52" target="N3y8-y1VJrY_6f-vKtxs-2">
          <mxGeometry width="50" height="50" relative="1" as="geometry">
            <mxPoint x="610" y="-10" as="sourcePoint" />
            <mxPoint x="514" y="40" as="targetPoint" />
          </mxGeometry>
        </mxCell>
        <mxCell id="N3y8-y1VJrY_6f-vKtxs-65" value="" style="endArrow=none;html=1;rounded=0;exitX=0;exitY=0.5;exitDx=0;exitDy=0;entryX=1;entryY=0.25;entryDx=0;entryDy=0;" edge="1" parent="1" source="N3y8-y1VJrY_6f-vKtxs-54" target="N3y8-y1VJrY_6f-vKtxs-2">
          <mxGeometry width="50" height="50" relative="1" as="geometry">
            <mxPoint x="630" y="40" as="sourcePoint" />
            <mxPoint x="514" y="50" as="targetPoint" />
          </mxGeometry>
        </mxCell>
        <mxCell id="N3y8-y1VJrY_6f-vKtxs-126" value="&lt;span style=&quot;font-size: 16px;&quot;&gt;1&lt;/span&gt;" style="text;html=1;align=center;verticalAlign=middle;whiteSpace=wrap;rounded=0;" vertex="1" parent="1">
          <mxGeometry x="580" y="90" width="60" height="30" as="geometry" />
        </mxCell>
        <mxCell id="N3y8-y1VJrY_6f-vKtxs-127" value="&lt;span style=&quot;font-size: 16px;&quot;&gt;N&lt;/span&gt;" style="text;html=1;align=center;verticalAlign=middle;whiteSpace=wrap;rounded=0;" vertex="1" parent="1">
          <mxGeometry x="470" y="70" width="60" height="30" as="geometry" />
        </mxCell>
        <mxCell id="N3y8-y1VJrY_6f-vKtxs-138" style="edgeStyle=orthogonalEdgeStyle;rounded=0;orthogonalLoop=1;jettySize=auto;html=1;exitX=0.5;exitY=1;exitDx=0;exitDy=0;" edge="1" parent="1" source="N3y8-y1VJrY_6f-vKtxs-32" target="N3y8-y1VJrY_6f-vKtxs-32">
          <mxGeometry relative="1" as="geometry" />
        </mxCell>
      </root>
    </mxGraphModel>
  </diagram>
</mxfile>
